[img]http://img607.imageshack.us/img607/8530/shame.jpg[/img]
[code]
Shame 2012 CAM READNFO XViD AC3-26K

Imdb: 
http://www.imdb.com/title/tt1723811/

Plot:
In New York City, Brandon's carefully cultivated private life -- which allows him to indulge his sexual 

addiction -- is disrupted when his sister Sissy arrives unannounced for an indefinite stay.

Sources:
VIDEO-P76. THNXS
AUDIO-INSPIRAL. THNXS

Notes:
READNFO WELL THE VIDEO HAS A WATERMARK ON IT...ALSO AS FEW MISSING BITS IN the VIDEO AT DIFFRENT PLACES 

missing NOT MUCH IS MISSED TO BE FAIR... ADDED FEW FILTERS TO THE VIDEO TO MAKE IT LOOK GOOD SO BOTTOM 

LINE TAKE IT OR LEAVE IT ;)
THNXS TO BOTH P76 AND INSPIRAL ;0)

Greetz:
Xtreme 

Encode|FYA|ILLUMANTI|CM8|RX|VISION|HDSCENE|NIGHTMAREZ|xTriLL|DTRG|CRYS|REMIXHD|BIDA|RX|REFILL|INSPiRAL|S

IC|ZOMBIESZ|HOPE|Anonymous
To all the people who have helped me :P you know who you are

Anything to offer email us @: 26k@hushmail.me

Video
ID                                       : 0
Format                                   : MPEG-4 Visual
Format profile                           : Advanced Simple@L5
Format settings, BVOP                    : 2
Format settings, QPel                    : No
Format settings, GMC                     : No warppoints
Format settings, Matrix                  : Default (H.263)
Codec ID                                 : XVID
Codec ID/Hint                            : XviD
Duration                                 : 1h 35mn
Bit rate                                 : 1 600 Kbps
Width                                    : 640 pixels
Height                                   : 256 pixels
Display aspect ratio                     : 2.500
Frame rate                               : 25.000 fps
Color space                              : YUV
Chroma subsampling                       : 4:2:0
Bit depth                                : 8 bits
Scan type                                : Progressive
Compression mode                         : Lossy
Bits/(Pixel*Frame)                       : 0.391
Stream size                              : 1.06 GiB (89%)
Writing library                          : XviD 63

Audio
ID                                       : 1
Format                                   : AC-3
Format/Info                              : Audio Coding 3
Mode extension                           : CM (complete main)
Codec ID                                 : 2000
Duration                                 : 1h 35mn
Bit rate mode                            : Constant
Bit rate                                 : 192 Kbps
Channel(s)                               : 2 channels
Channel positions                        : Front: L R
Sampling rate                            : 44.1 KHz
Bit depth                                : 16 bits
Compression mode                         : Lossy
Stream size                              : 131 MiB (11%)
Alignment                                : Aligned on interleaves
Interleave, duration                     : 35 ms (0.87 video frame)

[/code]
Screens:
[img]http://img810.imageshack.us/img810/4094/vlcsnap2012012512h18m55.png[/img]
[img]http://img441.imageshack.us/img441/8766/vlcsnap2012012512h18m59.png[/img]
[img]http://img688.imageshack.us/img688/3056/vlcsnap2012012512h19m08.png[/img]
[img]http://img542.imageshack.us/img542/412/vlcsnap2012012512h19m15.png[/img]
[img]http://img854.imageshack.us/img854/514/vlcsnap2012012512h19m23.png[/img]

[img]http://img851.imageshack.us/img851/5503/26ks.jpg[/img]
Thank you smallz for banner!